<svg xmlns="http://www.w3.org/2000/svg" width="78.147" height="84.498" viewBox="0 0 78.147 84.498">
  <g id="_2" data-name="2" transform="translate(1.316 1.316)">
    <path id="Path_23" data-name="Path 23" d="M600.94,154.145c.21.29.41.589.6.879.78,1.161,1.49,2.281,2.12,3.361h19.85c4.453-7.725,13.3-16.846,16.212-29" transform="translate(-577.69 -94.281)" fill="none" stroke="#ffe600" stroke-linecap="square" stroke-width="2.632"/>
    <path id="Path_24" data-name="Path 24" d="M588.718,133.6a35.361,35.361,0,0,1-2.238-12.234,27.075,27.075,0,0,1,27.1-27.08h.01c.25,0,.5.01.74.029h.11a27.057,27.057,0,0,1,24.12,16.54" transform="translate(-577.69 -94.281)" fill="none" stroke="#ffe600" stroke-linecap="square" stroke-width="2.632"/>
    <path id="Path_25" data-name="Path 25" d="M605.458,152.916c-.1-.22-.206-.441-.311-.663q-.384-.821-.784-1.665-.415-.885-.842-1.8" transform="translate(-577.69 -94.281)" fill="none" stroke="#ffe600" stroke-linecap="square" stroke-width="2.632"/>
    <path id="Path_26" data-name="Path 26" d="M619.81,157.2c3.2-7.779,8.95-17,10.55-29.269" transform="translate(-577.69 -94.281)" fill="none" stroke="#ffe600" stroke-linecap="square" stroke-width="2.632"/>
    <path id="Path_27" data-name="Path 27" d="M597.866,133.6a51.2,51.2,0,0,1-1.5-12.232c0-7.478,1.924-14.251,5.037-19.152s7.415-7.931,12.169-7.931h.011c7.212,0,13.391,6.983,15.948,16.892" transform="translate(-577.69 -94.281)" fill="none" stroke="#ffe600" stroke-linecap="square" stroke-width="2.632"/>
    <path id="Path_28" data-name="Path 28" d="M603.521,148.792c-.41-.884-.824-1.787-1.234-2.71" transform="translate(-577.69 -94.281)" fill="none" stroke="#ffe600" stroke-linecap="square" stroke-width="2.632"/>
    <path id="Path_29" data-name="Path 29" d="M611.533,157.018c-1.771-9.072-5.181-20.12-5.181-35.654,0-14.956,3.24-27.083,7.225-27.083h.011c4,.022,7.225,12.138,7.225,27.083,0,13.2-2.462,23.16-4.283,31.423" transform="translate(-577.69 -94.281)" fill="none" stroke="#ffe600" stroke-linecap="square" stroke-width="2.632"/>
    <path id="Rectangle_23" data-name="Rectangle 23" d="M0,0H16.238a0,0,0,0,1,0,0V6.607a3.918,3.918,0,0,1-3.918,3.918h-8.4A3.918,3.918,0,0,1,0,6.607V0A0,0,0,0,1,0,0Z" transform="translate(27.663 71.341)" fill="none" stroke="#ffe600" stroke-linecap="square" stroke-width="2.632"/>
    <line id="Line_21" data-name="Line 21" y1="1.209" transform="translate(27.663 68.922)" fill="none" stroke="#ffe600" stroke-linecap="square" stroke-width="2.632"/>
    <line id="Line_22" data-name="Line 22" y1="1.209" transform="translate(43.902 68.922)" fill="none" stroke="#ffe600" stroke-linecap="square" stroke-width="2.632"/>
    <path id="Path_30" data-name="Path 30" d="M581.285,142.779v-.015a7.818,7.818,0,0,1,15.277-2.345c.041,0,.079-.006.119-.006a5.085,5.085,0,1,1,0,10.169H581.6a3.908,3.908,0,0,1-.314-7.8Z" transform="translate(-577.69 -94.281)" fill="none" stroke="#ffe600" stroke-linecap="square" stroke-width="2.632"/>
    <path id="Path_31" data-name="Path 31" d="M649.179,119.42v-.012a8.759,8.759,0,0,0-17.115-2.633c-.045,0-.088-.006-.132-.006a5.7,5.7,0,1,0,0,11.391h16.893a4.377,4.377,0,0,0,.353-8.74Z" transform="translate(-577.69 -94.281)" fill="none" stroke="#ffe600" stroke-linecap="square" stroke-width="2.632"/>
  </g>
</svg>
