<svg xmlns="http://www.w3.org/2000/svg" width="204" height="19" viewBox="0 0 204 19">
  <g id="Group_43" data-name="Group 43" opacity="0.36">
    <path id="Path_33" data-name="Path 33" d="M406,387c-1.4,2.731-7.973,4.049-10,3C398.032,387.7,401.983,387.317,406,387Z" transform="translate(-202 -387)" fill="#fff" fill-rule="evenodd"/>
    <path id="Path_34" data-name="Path 34" d="M392,390c-.443,3.89-5.68,2.987-9,4C383.541,390.208,389.22,391.553,392,390Z" transform="translate(-202 -387)" fill="#fff" fill-rule="evenodd"/>
    <path id="Path_35" data-name="Path 35" d="M202,393v-1c2.027-1.049,8.6.269,10,3C207.336,395.664,205.576,393.424,202,393Z" transform="translate(-202 -387)" fill="#fff" fill-rule="evenodd"/>
    <path id="Path_36" data-name="Path 36" d="M379,394c-1.381,2.953-6.362,2.3-10,3C369.818,393.485,374.977,394.31,379,394Z" transform="translate(-202 -387)" fill="#fff" fill-rule="evenodd"/>
    <path id="Path_37" data-name="Path 37" d="M216,395a94.167,94.167,0,0,1,10,2C225.617,399.9,216.515,398.186,216,395Z" transform="translate(-202 -387)" fill="#fff" fill-rule="evenodd"/>
    <path id="Path_38" data-name="Path 38" d="M365,397c-1.381,2.953-6.362,2.3-10,3C355.818,396.485,360.977,397.311,365,397Z" transform="translate(-202 -387)" fill="#fff" fill-rule="evenodd"/>
    <path id="Path_39" data-name="Path 39" d="M230,398c3.166.834,8.4-.4,9,3C235.394,400.606,230.631,401.369,230,398Z" transform="translate(-202 -387)" fill="#fff" fill-rule="evenodd"/>
    <path id="Path_40" data-name="Path 40" d="M351,399c-.524,3.809-5.889,2.778-10,3C342.1,398.77,347.967,400.3,351,399Z" transform="translate(-202 -387)" fill="#fff" fill-rule="evenodd"/>
    <path id="Path_41" data-name="Path 41" d="M244,400c2.548,1.451,8.65-.65,9,3C249.186,402.814,244.422,403.578,244,400Z" transform="translate(-202 -387)" fill="#fff" fill-rule="evenodd"/>
    <path id="Path_42" data-name="Path 42" d="M337,401c-.048,4.285-6,2.666-10,3C327.725,400.391,334.619,402.952,337,401Z" transform="translate(-202 -387)" fill="#fff" fill-rule="evenodd"/>
    <path id="Path_43" data-name="Path 43" d="M257,403c1.918-1.852,10.5-1.885,10,2C264.522,403.479,259.247,404.753,257,403Z" transform="translate(-202 -387)" fill="#fff" fill-rule="evenodd"/>
    <path id="Path_44" data-name="Path 44" d="M281,404c-1.064,2.27-6.286.381-9,1C271.533,401.184,279.811,403.106,281,404Z" transform="translate(-202 -387)" fill="#fff" fill-rule="evenodd"/>
    <path id="Path_45" data-name="Path 45" d="M315,406h-1c-3.443-3.131,7.216-4.262,9-2C322.556,406.889,315.444,403.111,315,406Z" transform="translate(-202 -387)" fill="#fff" fill-rule="evenodd"/>
    <path id="Path_46" data-name="Path 46" d="M295,406h-9C282.056,403.237,295.946,402.445,295,406Z" transform="translate(-202 -387)" fill="#fff" fill-rule="evenodd"/>
    <path id="Path_47" data-name="Path 47" d="M309,406h-9C299.115,402.8,309.885,402.8,309,406Z" transform="translate(-202 -387)" fill="#fff" fill-rule="evenodd"/>
  </g>
</svg>
