<svg xmlns="http://www.w3.org/2000/svg" width="204" height="19" viewBox="0 0 204 19">
  <g id="Group_44" data-name="Group 44" opacity="0.36">
    <path id="Path_33" data-name="Path 33" d="M396,390.36c1.4-2.731,7.973-4.049,10-3C403.968,389.661,400.017,390.043,396,390.36Z" transform="translate(-396 -371.36)" fill="#fff" fill-rule="evenodd"/>
    <path id="Path_34" data-name="Path 34" d="M383,394c.443-3.89,5.68-2.987,9-4C391.459,393.792,385.78,392.447,383,394Z" transform="translate(-369 -378)" fill="#fff" fill-rule="evenodd"/>
    <path id="Path_35" data-name="Path 35" d="M212,393.762v1c-2.027,1.049-8.6-.269-10-3C206.664,391.1,208.424,393.338,212,393.762Z" transform="translate(-8 -380.762)" fill="#fff" fill-rule="evenodd"/>
    <path id="Path_36" data-name="Path 36" d="M369,397c1.381-2.953,6.362-2.3,10-3C378.182,397.515,373.023,396.69,369,397Z" transform="translate(-342 -385)" fill="#fff" fill-rule="evenodd"/>
    <path id="Path_37" data-name="Path 37" d="M226,398.486a94.167,94.167,0,0,1-10-2C216.383,393.583,225.485,395.3,226,398.486Z" transform="translate(-36 -387.486)" fill="#fff" fill-rule="evenodd"/>
    <path id="Path_38" data-name="Path 38" d="M355,400c1.381-2.953,6.362-2.3,10-3C364.182,400.515,359.023,399.689,355,400Z" transform="translate(-314 -391)" fill="#fff" fill-rule="evenodd"/>
    <path id="Path_39" data-name="Path 39" d="M239,401c-3.166-.834-8.4.4-9-3C233.606,398.394,238.369,397.631,239,401Z" transform="translate(-63 -393)" fill="#fff" fill-rule="evenodd"/>
    <path id="Path_40" data-name="Path 40" d="M341,402c.524-3.809,5.889-2.778,10-3C349.9,402.23,344.033,400.7,341,402Z" transform="translate(-286 -395)" fill="#fff" fill-rule="evenodd"/>
    <path id="Path_41" data-name="Path 41" d="M253,403c-2.548-1.451-8.65.65-9-3C247.814,400.186,252.578,399.422,253,403Z" transform="translate(-91 -397)" fill="#fff" fill-rule="evenodd"/>
    <path id="Path_42" data-name="Path 42" d="M327,404.034c.048-4.285,6-2.666,10-3C336.275,404.643,329.381,402.082,327,404.034Z" transform="translate(-258 -399.034)" fill="#fff" fill-rule="evenodd"/>
    <path id="Path_43" data-name="Path 43" d="M267.021,403.784c-1.918,1.852-10.5,1.885-10-2C259.5,403.305,264.774,402.031,267.021,403.784Z" transform="translate(-118.021 -400.784)" fill="#fff" fill-rule="evenodd"/>
    <path id="Path_44" data-name="Path 44" d="M271.981,403.872c1.064-2.27,6.286-.381,9-1C281.448,406.688,273.17,404.766,271.981,403.872Z" transform="translate(-146.981 -401.872)" fill="#fff" fill-rule="evenodd"/>
    <path id="Path_45" data-name="Path 45" d="M321.32,402.811h1c3.443,3.131-7.216,4.262-9,2C313.764,401.922,320.876,405.7,321.32,402.811Z" transform="translate(-230.32 -402.811)" fill="#fff" fill-rule="evenodd"/>
    <path id="Path_46" data-name="Path 46" d="M285.339,403.622h9C298.283,406.385,284.393,407.177,285.339,403.622Z" transform="translate(-174.339 -403.622)" fill="#fff" fill-rule="evenodd"/>
    <path id="Path_47" data-name="Path 47" d="M300,403.6h9C309.885,406.8,299.115,406.8,300,403.6Z" transform="translate(-203 -403.597)" fill="#fff" fill-rule="evenodd"/>
  </g>
</svg>
