<svg xmlns="http://www.w3.org/2000/svg" width="67.919" height="78.852" viewBox="0 0 67.919 78.852">
  <g id="_17" data-name="17" transform="translate(1.316 1.338)">
    <line id="Line_16" data-name="Line 16" x2="1.539" y2="3.987" transform="translate(36 38.383)" fill="none" stroke="#ffe600" stroke-linecap="square" stroke-width="2.632"/>
    <line id="Line_17" data-name="Line 17" y1="7.975" x2="1.961" transform="translate(20.268 34.395)" fill="none" stroke="#ffe600" stroke-linecap="square" stroke-width="2.632"/>
    <path id="Path_19" data-name="Path 19" d="M626.6,581.734c0,10.049-5.551,19.54-12.4,19.54s-12.4-9.491-12.4-19.54" transform="translate(-585.301 -565.114)" fill="none" stroke="#ffe600" stroke-linecap="square" stroke-width="2.632"/>
    <path id="Path_20" data-name="Path 20" d="M627,579.55s2.436-6.133-.394-9.675-11.837-7.049-20.726-2.834c-9.432,4.473-4.814,12.584-4.814,12.584,12.834,3.711,16.5-4.082,20.27-2.843" transform="translate(-585.301 -565.114)" fill="none" stroke="#ffe600" stroke-linecap="square" stroke-width="2.632"/>
    <path id="Path_21" data-name="Path 21" d="M632.86,608.308a15.182,15.182,0,0,0-4.951-.824H622.84a9.319,9.319,0,0,1-17.271,0H600.5a15.2,15.2,0,0,0-15.2,15.2v18.63h57.806v-18.63a15.144,15.144,0,0,0-3.86-10.123" transform="translate(-585.301 -565.114)" fill="none" stroke="#ffe600" stroke-linecap="square" stroke-width="2.632"/>
    <line id="Line_18" data-name="Line 18" y1="29.553" transform="translate(48.486 29.731)" fill="none" stroke="#ffe600" stroke-linecap="square" stroke-width="2.632"/>
    <path id="Path_22" data-name="Path 22" d="M649.594,600.621H633.787V589.862h15.807l-3.187,5.38Z" transform="translate(-585.301 -565.114)" fill="none" stroke="#ffe600" stroke-linecap="square" stroke-width="2.632"/>
    <line id="Line_19" data-name="Line 19" x1="7.53" y2="18.45" transform="translate(34.419 43.83)" fill="none" stroke="#ffe600" stroke-linecap="square" stroke-width="2.632"/>
    <line id="Line_20" data-name="Line 20" x1="7.76" y1="18.45" transform="translate(15.859 43.83)" fill="none" stroke="#ffe600" stroke-linecap="square" stroke-width="2.632"/>
    <rect id="Rectangle_22" data-name="Rectangle 22" width="14.192" height="7.533" transform="translate(21.807 62.284)" fill="none" stroke="#ffe600" stroke-linecap="square" stroke-width="2.632"/>
  </g>
</svg>
