<svg xmlns="http://www.w3.org/2000/svg" width="69.83" height="69.831" viewBox="0 0 69.83 69.831">
  <g id="_1" data-name="1" transform="translate(1.971 1.316)">
    <g id="Group_36" data-name="Group 36" transform="translate(2.335 38.503)">
      <path id="Path_5" data-name="Path 5" d="M473.433,155.968l-.094,7.292-2.891,2.892-4.124-9.052" transform="translate(-447.792 -140.445)" fill="none" stroke="#ffe600" stroke-linecap="square" stroke-width="2.632"/>
      <path id="Path_6" data-name="Path 6" d="M463.029,140.445l-12.347.158-2.891,2.891,4.9,2.231" transform="translate(-447.792 -140.445)" fill="none" stroke="#ffe600" stroke-linecap="square" stroke-width="2.632"/>
    </g>
    <path id="Path_7" data-name="Path 7" d="M482.4,113.15l-9.806-1.53,2.2-2.2a1.756,1.756,0,0,0,0-2.484l-1.249-1.248a1.755,1.755,0,0,0-2.483,0l-4.921,4.922L448.775,107.9l-3.112,3.113,29.778,16.151" transform="translate(-445.457 -101.943)" fill="none" stroke="#ffe600" stroke-linecap="square" stroke-width="2.632"/>
    <path id="Path_8" data-name="Path 8" d="M499.988,126.385l2.335,14.965,2.2-2.2a1.757,1.757,0,0,1,2.483,0l1.248,1.249a1.755,1.755,0,0,1,0,2.483l-4.921,4.922,2.708,17.361-3.113,3.113L489.051,142.7" transform="translate(-445.457 -101.943)" fill="none" stroke="#ffe600" stroke-linecap="square" stroke-width="2.632"/>
    <path id="Path_9" data-name="Path 9" d="M463.607,158.688l-8.352-8.352,42.152-45.126a10.176,10.176,0,0,1,7.3-3.23l2.768-.037A4.463,4.463,0,0,1,512,106.467l-.037,2.768a10.179,10.179,0,0,1-3.229,7.3Z" transform="translate(-445.457 -101.943)" fill="none" stroke="#ffe600" stroke-linecap="square" stroke-width="2.632"/>
    <line id="Line_6" data-name="Line 6" x1="7.213" y2="7.213" transform="translate(11.288 48.042)" fill="none" stroke="#ffe600" stroke-linecap="square" stroke-width="2.632"/>
    <line id="Line_7" data-name="Line 7" x2="3.94" y2="3.941" transform="translate(55.702 6.9)" fill="none" stroke="#ffe600" stroke-linecap="square" stroke-width="2.632"/>
    <line id="Line_8" data-name="Line 8" x1="4.513" y2="4.513" transform="translate(42.889 59.306)" fill="none" stroke="#ffe600" stroke-linecap="square" stroke-width="2.632"/>
    <line id="Line_9" data-name="Line 9" x1="10.428" y2="10.428" transform="translate(33.866 53.708)" fill="none" stroke="#ffe600" stroke-linecap="square" stroke-width="2.632"/>
    <line id="Line_10" data-name="Line 10" x1="1.556" y2="1.556" transform="translate(48.881 64.987)" fill="none" stroke="#ffe600" stroke-linecap="square" stroke-width="2.632"/>
    <line id="Line_11" data-name="Line 11" x1="4.513" y2="4.513" transform="translate(2.724 19.141)" fill="none" stroke="#ffe600" stroke-linecap="square" stroke-width="2.632"/>
    <line id="Line_12" data-name="Line 12" x1="10.427" y2="10.428" transform="translate(2.408 22.249)" fill="none" stroke="#ffe600" stroke-linecap="square" stroke-width="2.632"/>
    <line id="Line_13" data-name="Line 13" x1="1.556" y2="1.556" transform="translate(0 16.106)" fill="none" stroke="#ffe600" stroke-linecap="square" stroke-width="2.632"/>
  </g>
</svg>
